<?xml version="1.0" standalone="no"?>
<!DOCTYPE svg PUBLIC "-//W3C//DTD SVG 20010904//EN"
 "http://www.w3.org/TR/2001/REC-SVG-20010904/DTD/svg10.dtd">
<svg version="1.0" xmlns="http://www.w3.org/2000/svg"
 width="250.000000pt" height="250.000000pt" viewBox="0 0 250.000000 250.000000"
 preserveAspectRatio="xMidYMid meet">

<g transform="translate(0.000000,250.000000) scale(0.100000,-0.100000)"
fill="#000000" stroke="none">
<path d="M1707 1430 c62 -13 101 -37 119 -72 51 -98 -22 -215 -117 -188 -18 5
-35 8 -37 5 -2 -2 14 -8 35 -14 90 -25 183 41 183 129 0 83 -63 138 -167 145
-54 4 -55 4 -16 -5z"/>
<path d="M240 1410 c19 -19 20 -33 20 -241 0 -133 -4 -228 -10 -240 -10 -18
-7 -19 40 -19 47 0 50 1 36 16 -13 12 -16 40 -16 139 0 112 2 125 19 135 15 7
32 4 73 -15 73 -34 108 -32 129 7 9 17 8 18 -10 6 -16 -10 -29 -10 -63 1 -68
20 -104 24 -127 12 -21 -12 -21 -11 -21 99 l0 110 70 0 c91 0 166 -17 190 -43
l20 -21 0 37 0 37 -185 0 -185 0 20 -20z"/>
<path d="M802 1401 c-6 -16 -7 -33 -2 -37 4 -5 22 -49 40 -99 18 -49 39 -103
46 -120 33 -79 64 -170 64 -191 0 -13 -8 -28 -17 -33 -14 -8 -3 -10 44 -11
l62 0 -22 33 c-12 18 -60 135 -107 260 -47 125 -88 227 -92 227 -3 0 -11 -13
-16 -29z"/>
<path d="M1084 1408 c13 -13 56 -82 95 -155 71 -131 71 -131 71 -210 0 -48 -6
-88 -14 -105 l-15 -28 51 0 c46 0 49 2 37 17 -9 11 -15 49 -16 115 -2 78 -6
106 -22 131 -11 18 -40 73 -66 123 -46 91 -50 119 -17 127 10 3 -16 5 -56 6
l-73 1 25 -22z"/>
<path d="M1393 1419 c27 -16 21 -41 -33 -149 -28 -55 -48 -100 -45 -100 2 0
32 52 65 115 34 63 71 122 83 130 20 14 18 15 -33 15 -42 -1 -51 -3 -37 -11z"/>
<path d="M1526 1409 c17 -19 19 -41 22 -230 3 -170 0 -215 -12 -239 l-14 -30
48 0 49 0 -15 28 c-11 21 -14 76 -14 250 0 222 0 223 23 232 17 7 6 9 -42 9
l-64 1 19 -21z"/>
<path d="M2141 1409 c-8 -21 -3 -45 26 -125 19 -55 43 -117 53 -139 10 -22 30
-73 44 -114 25 -68 25 -75 11 -97 l-15 -24 62 1 c35 0 57 3 50 6 -19 8 -43 60
-127 283 -93 248 -91 243 -104 209z"/>
<path d="M2160 1222 c0 -6 -28 -30 -62 -53 -126 -84 -161 -136 -138 -204 15
-44 44 -65 93 -65 48 0 89 21 116 59 32 44 25 49 -11 7 -23 -26 -44 -39 -70
-43 -74 -11 -115 78 -69 153 11 17 44 49 74 70 54 38 84 71 73 82 -3 3 -6 0
-6 -6z"/>
<path d="M809 1204 c-7 -9 -36 -31 -64 -49 -104 -68 -143 -136 -116 -203 37
-89 183 -59 228 47 8 18 12 35 10 37 -2 2 -11 -15 -21 -37 -19 -42 -66 -79
-102 -79 -31 0 -71 36 -79 69 -9 42 16 93 65 132 84 68 105 87 99 93 -3 4 -12
-1 -20 -10z"/>
<path d="M1670 1118 c25 -24 69 -81 99 -126 l54 -82 46 1 c34 0 41 2 26 8 -26
11 -51 39 -100 114 -33 50 -51 67 -105 95 l-65 34 45 -44z"/>
</g>
</svg>
